<svg width="49" height="167" viewBox="0 0 49 167" fill="none" xmlns="http://www.w3.org/2000/svg">
<path d="M34.8858 47.7859H33.2255V46.3454C33.2255 45.9634 33.0506 45.597 32.7392 45.3269C32.4278 45.0568 32.0055 44.905 31.5652 44.905C31.1248 44.905 30.7025 45.0568 30.3912 45.3269C30.0798 45.597 29.9049 45.9634 29.9049 46.3454V47.7859H19.9429V46.3454C19.9429 45.9634 19.768 45.597 19.4566 45.3269C19.1452 45.0568 18.7229 44.905 18.2826 44.905C17.8422 44.905 17.4199 45.0568 17.1086 45.3269C16.7972 45.597 16.6223 45.9634 16.6223 46.3454V47.7859H14.9619C13.6409 47.7859 12.374 48.2411 11.4399 49.0515C10.5057 49.8619 9.98096 50.9611 9.98096 52.1071V69.3922C9.98096 70.5382 10.5057 71.6374 11.4399 72.4478C12.374 73.2581 13.6409 73.7134 14.9619 73.7134H34.8858C36.2069 73.7134 37.4738 73.2581 38.4079 72.4478C39.342 71.6374 39.8668 70.5382 39.8668 69.3922V52.1071C39.8668 50.9611 39.342 49.8619 38.4079 49.0515C37.4738 48.2411 36.2069 47.7859 34.8858 47.7859ZM18.2826 66.5113C17.9542 66.5113 17.6332 66.4268 17.3602 66.2686C17.0871 66.1103 16.8743 65.8853 16.7486 65.6221C16.623 65.3589 16.5901 65.0693 16.6542 64.7899C16.7182 64.5105 16.8764 64.2538 17.1086 64.0524C17.3408 63.8509 17.6366 63.7137 17.9587 63.6582C18.2807 63.6026 18.6146 63.6311 18.918 63.7401C19.2213 63.8491 19.4807 64.0338 19.6631 64.2706C19.8455 64.5075 19.9429 64.786 19.9429 65.0709C19.9429 65.4529 19.768 65.8193 19.4566 66.0894C19.1452 66.3596 18.7229 66.5113 18.2826 66.5113ZM31.5652 66.5113H24.9239C24.4835 66.5113 24.0612 66.3596 23.7499 66.0894C23.4385 65.8193 23.2636 65.4529 23.2636 65.0709C23.2636 64.6889 23.4385 64.3225 23.7499 64.0524C24.0612 63.7822 24.4835 63.6305 24.9239 63.6305H31.5652C32.0055 63.6305 32.4278 63.7822 32.7392 64.0524C33.0506 64.3225 33.2255 64.6889 33.2255 65.0709C33.2255 65.4529 33.0506 65.8193 32.7392 66.0894C32.4278 66.3596 32.0055 66.5113 31.5652 66.5113ZM36.5462 57.8688H13.3016V52.1071C13.3016 51.7251 13.4765 51.3587 13.7879 51.0886C14.0993 50.8185 14.5216 50.6667 14.9619 50.6667H16.6223V52.1071C16.6223 52.4891 16.7972 52.8555 17.1086 53.1257C17.4199 53.3958 17.8422 53.5475 18.2826 53.5475C18.7229 53.5475 19.1452 53.3958 19.4566 53.1257C19.768 52.8555 19.9429 52.4891 19.9429 52.1071V50.6667H29.9049V52.1071C29.9049 52.4891 30.0798 52.8555 30.3912 53.1257C30.7025 53.3958 31.1248 53.5475 31.5652 53.5475C32.0055 53.5475 32.4278 53.3958 32.7392 53.1257C33.0506 52.8555 33.2255 52.4891 33.2255 52.1071V50.6667H34.8858C35.3262 50.6667 35.7485 50.8185 36.0599 51.0886C36.3712 51.3587 36.5462 51.7251 36.5462 52.1071V57.8688Z" fill="#65AAFA"/>
<path d="M0 80.5944H29C40.0457 80.5944 49 89.5487 49 100.594C49 111.64 40.0457 120.594 29 120.594H0V80.5944Z" fill="#D9D9D9" fill-opacity="0.34"/>
<path d="M25.0488 117.088C24.8508 117.089 24.6546 117.048 24.4713 116.966C24.2881 116.884 24.1214 116.764 23.9809 116.612L12.2943 103.833C10.8284 102.215 10.0061 100.031 10.0061 97.7553C10.0061 95.4794 10.8284 93.2955 12.2943 91.6779C13.7717 90.069 15.7729 89.1655 17.8593 89.1655C19.9457 89.1655 21.947 90.069 23.4244 91.6779L25.0488 93.4518L26.6732 91.6779C28.1505 90.069 30.1518 89.1655 32.2382 89.1655C34.3246 89.1655 36.3259 90.069 37.8032 91.6779C39.2692 93.2955 40.0914 95.4794 40.0914 97.7553C40.0914 100.031 39.2692 102.215 37.8032 103.833L26.1167 116.612C25.9761 116.764 25.8094 116.884 25.6262 116.966C25.4429 117.048 25.2467 117.089 25.0488 117.088Z" fill="#FF0000" fill-opacity="0.38"/>
<path d="M37.0435 139.952H16.1739C14.7902 139.952 13.4631 140.411 12.4847 141.228C11.5062 142.045 10.9565 143.154 10.9565 144.309V161.739C10.9565 162.895 11.5062 164.003 12.4847 164.82C13.4631 165.638 14.7902 166.097 16.1739 166.097H37.0435C37.5047 166.097 37.9471 165.944 38.2733 165.671C38.5994 165.399 38.7826 165.029 38.7826 164.644V141.405C38.7826 141.019 38.5994 140.65 38.2733 140.377C37.9471 140.105 37.5047 139.952 37.0435 139.952ZM16.1739 163.192C15.7127 163.192 15.2703 163.039 14.9442 162.766C14.618 162.494 14.4348 162.125 14.4348 161.739C14.4348 161.354 14.618 160.985 14.9442 160.712C15.2703 160.44 15.7127 160.287 16.1739 160.287H35.3044V163.192H16.1739Z" fill="#5C5C5C"/>
<path d="M12.3706 28.9502C12.0287 28.9493 11.693 28.8773 11.3956 28.7411C11.0882 28.6014 10.8323 28.3983 10.6539 28.1524C10.4756 27.9065 10.3813 27.6268 10.3807 27.3418V3.74744C10.3538 2.78294 10.7983 1.84873 11.6177 1.14727C12.4371 0.445806 13.5655 0.0336055 14.7584 0H33.861C35.0538 0.0336055 36.1823 0.445806 37.0017 1.14727C37.8211 1.84873 38.2656 2.78294 38.2387 3.74744V27.3418C38.2366 27.6225 38.1436 27.8978 37.9691 28.1405C37.7945 28.3831 37.5445 28.5847 37.2437 28.725C36.9412 28.8661 36.5981 28.9405 36.2488 28.9405C35.8995 28.9405 35.5564 28.8661 35.2539 28.725L23.9714 23.5622L13.3655 28.7089C13.0661 28.8591 12.7228 28.9424 12.3706 28.9502Z" fill="#35FF6E" fill-opacity="0.41"/>
</svg>
