<svg width="28" height="29" viewBox="0 0 28 29" fill="none" xmlns="http://www.w3.org/2000/svg">
<path d="M1.99443 29C1.65201 28.9991 1.31563 28.927 1.01773 28.7905C0.709833 28.6507 0.453455 28.4472 0.274834 28.2009C0.0962126 27.9546 0.0017643 27.6744 0.00115564 27.3889V3.75389C-0.0257901 2.78773 0.4194 1.85191 1.24024 1.14924C2.06109 0.446573 3.19145 0.0336634 4.38636 0H23.5218C24.7167 0.0336634 25.8471 0.446573 26.6679 1.14924C27.4888 1.85191 27.934 2.78773 27.907 3.75389V27.3889C27.9049 27.67 27.8118 27.9459 27.637 28.1889C27.4622 28.432 27.2117 28.6339 26.9104 28.7744C26.6074 28.9158 26.2637 28.9903 25.9138 28.9903C25.5639 28.9903 25.2201 28.9158 24.9171 28.7744L13.6152 23.6028L2.99107 28.7583C2.69119 28.9088 2.34726 28.9922 1.99443 29Z" fill="#35FF6E" fill-opacity="0.41"/>
</svg>
