<svg width="18" height="21" viewBox="0 0 18 21" fill="none" xmlns="http://www.w3.org/2000/svg">
<path d="M17.5287 13.2212L15.7269 11.4094V6.94481C15.7509 5.28693 15.1742 3.67637 14.1034 2.4105C13.0325 1.14463 11.5398 0.308949 9.90093 0.0577561C8.94977 -0.067505 7.98283 0.0115237 7.06464 0.289569C6.14644 0.567614 5.29809 1.03828 4.57621 1.67017C3.85432 2.30206 3.2755 3.08063 2.87835 3.95394C2.48121 4.82725 2.27487 5.77522 2.27312 6.73459V11.4094L0.471278 13.2212C0.244952 13.4513 0.0914729 13.743 0.0300267 14.0599C-0.0314195 14.3767 0.00189395 14.7047 0.125802 15.0027C0.24971 15.3007 0.458716 15.5556 0.726691 15.7355C0.994665 15.9154 1.30972 16.0123 1.63247 16.0141H4.99591V16.3544C5.04267 17.3707 5.49037 18.327 6.24091 19.0137C6.99145 19.7004 7.98362 20.0617 9.00001 20.0182C10.0164 20.0617 11.0086 19.7004 11.7591 19.0137C12.5097 18.327 12.9574 17.3707 13.0041 16.3544V16.0141H16.3676C16.6903 16.0123 17.0054 15.9154 17.2733 15.7355C17.5413 15.5556 17.7503 15.3007 17.8742 15.0027C17.9981 14.7047 18.0314 14.3767 17.97 14.0599C17.9086 13.743 17.7551 13.4513 17.5287 13.2212ZM11.0021 16.3544C10.9465 16.8359 10.7074 17.2774 10.3345 17.587C9.9615 17.8966 9.48349 18.0503 9.00001 18.0161C8.51653 18.0503 8.03853 17.8966 7.66557 17.587C7.29262 17.2774 7.05348 16.8359 6.99796 16.3544V16.0141H11.0021V16.3544Z" fill="#231F20"/>
</svg>
