<svg width="49" height="172" viewBox="0 0 49 172" fill="none" xmlns="http://www.w3.org/2000/svg">
<path d="M34.8859 53.1915H33.2255V51.7511C33.2255 51.3691 33.0506 51.0027 32.7392 50.7326C32.4279 50.4624 32.0056 50.3107 31.5652 50.3107C31.1249 50.3107 30.7026 50.4624 30.3912 50.7326C30.0798 51.0027 29.9049 51.3691 29.9049 51.7511V53.1915H19.9429V51.7511C19.9429 51.3691 19.768 51.0027 19.4566 50.7326C19.1453 50.4624 18.723 50.3107 18.2826 50.3107C17.8423 50.3107 17.42 50.4624 17.1086 50.7326C16.7972 51.0027 16.6223 51.3691 16.6223 51.7511V53.1915H14.962C13.6409 53.1915 12.374 53.6468 11.4399 54.4572C10.5058 55.2676 9.98099 56.3667 9.98099 57.5128V74.7978C9.98099 75.9439 10.5058 77.043 11.4399 77.8534C12.374 78.6638 13.6409 79.1191 14.962 79.1191H34.8859C36.2069 79.1191 37.4738 78.6638 38.4079 77.8534C39.3421 77.043 39.8668 75.9439 39.8668 74.7978V57.5128C39.8668 56.3667 39.3421 55.2676 38.4079 54.4572C37.4738 53.6468 36.2069 53.1915 34.8859 53.1915ZM18.2826 71.917C17.9542 71.917 17.6332 71.8325 17.3602 71.6742C17.0871 71.5159 16.8743 71.291 16.7487 71.0278C16.623 70.7646 16.5901 70.4749 16.6542 70.1955C16.7183 69.9161 16.8764 69.6595 17.1086 69.458C17.3408 69.2566 17.6366 69.1194 17.9587 69.0638C18.2808 69.0082 18.6146 69.0367 18.918 69.1458C19.2214 69.2548 19.4807 69.4394 19.6631 69.6763C19.8456 69.9132 19.9429 70.1917 19.9429 70.4765C19.9429 70.8586 19.768 71.2249 19.4566 71.4951C19.1453 71.7652 18.723 71.917 18.2826 71.917ZM31.5652 71.917H24.9239C24.4836 71.917 24.0613 71.7652 23.7499 71.4951C23.4385 71.2249 23.2636 70.8586 23.2636 70.4765C23.2636 70.0945 23.4385 69.7281 23.7499 69.458C24.0613 69.1879 24.4836 69.0361 24.9239 69.0361H31.5652C32.0056 69.0361 32.4279 69.1879 32.7392 69.458C33.0506 69.7281 33.2255 70.0945 33.2255 70.4765C33.2255 70.8586 33.0506 71.2249 32.7392 71.4951C32.4279 71.7652 32.0056 71.917 31.5652 71.917ZM36.5462 63.2744H13.3016V57.5128C13.3016 57.1307 13.4766 56.7644 13.7879 56.4942C14.0993 56.2241 14.5216 56.0723 14.962 56.0723H16.6223V57.5128C16.6223 57.8948 16.7972 58.2612 17.1086 58.5313C17.42 58.8014 17.8423 58.9532 18.2826 58.9532C18.723 58.9532 19.1453 58.8014 19.4566 58.5313C19.768 58.2612 19.9429 57.8948 19.9429 57.5128V56.0723H29.9049V57.5128C29.9049 57.8948 30.0798 58.2612 30.3912 58.5313C30.7026 58.8014 31.1249 58.9532 31.5652 58.9532C32.0056 58.9532 32.4279 58.8014 32.7392 58.5313C33.0506 58.2612 33.2255 57.8948 33.2255 57.5128V56.0723H34.8859C35.3262 56.0723 35.7485 56.2241 36.0599 56.4942C36.3713 56.7644 36.5462 57.1307 36.5462 57.5128V63.2744Z" fill="#65AAFA"/>
<path d="M25.0488 122.494C24.8509 122.495 24.6546 122.454 24.4714 122.372C24.2881 122.29 24.1214 122.17 23.9809 122.017L12.2943 109.238C10.8284 107.621 10.0061 105.437 10.0061 103.161C10.0061 100.885 10.8284 98.7011 12.2943 97.0835C13.7717 95.4746 15.773 94.5712 17.8594 94.5712C19.9458 94.5712 21.947 95.4746 23.4244 97.0835L25.0488 98.8574L26.6732 97.0835C28.1506 95.4746 30.1518 94.5712 32.2382 94.5712C34.3246 94.5712 36.3259 95.4746 37.8033 97.0835C39.2692 98.7011 40.0915 100.885 40.0915 103.161C40.0915 105.437 39.2692 107.621 37.8033 109.238L26.1167 122.017C25.9761 122.17 25.8095 122.29 25.6262 122.372C25.443 122.454 25.2467 122.495 25.0488 122.494Z" fill="#FF0000" fill-opacity="0.38"/>
<path d="M37.0435 145.358H16.1739C14.7902 145.358 13.4631 145.817 12.4847 146.634C11.5062 147.451 10.9565 148.559 10.9565 149.715V167.145C10.9565 168.301 11.5062 169.409 12.4847 170.226C13.4631 171.043 14.7902 171.502 16.1739 171.502H37.0435C37.5047 171.502 37.9471 171.349 38.2732 171.077C38.5994 170.805 38.7826 170.435 38.7826 170.05V146.81C38.7826 146.425 38.5994 146.055 38.2732 145.783C37.9471 145.511 37.5047 145.358 37.0435 145.358ZM16.1739 168.597C15.7127 168.597 15.2703 168.444 14.9442 168.172C14.618 167.9 14.4348 167.53 14.4348 167.145C14.4348 166.76 14.618 166.39 14.9442 166.118C15.2703 165.845 15.7127 165.692 16.1739 165.692H35.3043V168.597H16.1739Z" fill="#5C5C5C"/>
<path d="M0 0H29C40.0457 0 49 8.95431 49 20C49 31.0457 40.0457 40 29 40H0V0Z" fill="#D9D9D9" fill-opacity="0.34"/>
<path d="M12.3706 34.3558C12.0287 34.3549 11.693 34.2829 11.3956 34.1467C11.0882 34.0071 10.8323 33.8039 10.6539 33.558C10.4756 33.3122 10.3813 33.0324 10.3807 32.7474V9.15308C10.3538 8.18858 10.7983 7.25437 11.6177 6.55291C12.4371 5.85145 13.5655 5.43925 14.7584 5.40564H33.861C35.0538 5.43925 36.1823 5.85145 37.0017 6.55291C37.8211 7.25437 38.2656 8.18858 38.2387 9.15308V32.7474C38.2366 33.0281 38.1436 33.3035 37.9691 33.5461C37.7945 33.7888 37.5445 33.9903 37.2437 34.1306C36.9412 34.2718 36.5981 34.3461 36.2488 34.3461C35.8995 34.3461 35.5564 34.2718 35.2539 34.1306L23.9714 28.9678L13.3655 34.1145C13.0661 34.2647 12.7228 34.348 12.3706 34.3558Z" fill="#35FF6E" fill-opacity="0.41"/>
</svg>
