<svg width="28" height="27" viewBox="0 0 28 27" fill="none" xmlns="http://www.w3.org/2000/svg">
<path d="M26.2499 0H5.24998C3.8576 0 2.52225 0.461955 1.53768 1.28424C0.553122 2.10653 0 3.22179 0 4.38467V21.9234C0 23.0863 0.553122 24.2015 1.53768 25.0238C2.52225 25.8461 3.8576 26.308 5.24998 26.308H26.2499C26.714 26.308 27.1592 26.1541 27.4874 25.88C27.8155 25.6059 27.9999 25.2341 27.9999 24.8465V1.46156C27.9999 1.07393 27.8155 0.702176 27.4874 0.42808C27.1592 0.153985 26.714 0 26.2499 0ZM5.24998 23.3849C4.78586 23.3849 4.34074 23.2309 4.01255 22.9568C3.68436 22.6828 3.49999 22.311 3.49999 21.9234C3.49999 21.5357 3.68436 21.164 4.01255 20.8899C4.34074 20.6158 4.78586 20.4618 5.24998 20.4618H24.4999V23.3849H5.24998Z" fill="#5C5C5C"/>
</svg>
