<svg width="31" height="28" viewBox="0 0 31 28" fill="none" xmlns="http://www.w3.org/2000/svg">
<path d="M15.0844 28C14.8859 28.0012 14.6891 27.9597 14.5054 27.8777C14.3216 27.7957 14.1545 27.675 14.0135 27.5223L2.29453 14.7078C0.82455 13.0857 0 10.8957 0 8.61357C0 6.33139 0.82455 4.14139 2.29453 2.51929C3.77602 0.905971 5.78283 0 7.87501 0C9.96718 0 11.974 0.905971 13.4555 2.51929L15.0844 4.29816L16.7133 2.51929C18.1947 0.905971 20.2016 0 22.2937 0C24.3859 0 26.3927 0.905971 27.8742 2.51929C29.3442 4.14139 30.1687 6.33139 30.1687 8.61357C30.1687 10.8957 29.3442 13.0857 27.8742 14.7078L16.1552 27.5223C16.0143 27.675 15.8472 27.7957 15.6634 27.8777C15.4796 27.9597 15.2829 28.0012 15.0844 28Z" fill="#FF0000" fill-opacity="0.38"/>
</svg>
