<svg width="23" height="23" viewBox="0 0 23 23" fill="none" xmlns="http://www.w3.org/2000/svg">
<path d="M4.79167 20.125C4.26458 20.125 3.81337 19.9373 3.43802 19.562C3.06267 19.1866 2.875 18.7354 2.875 18.2083V4.79167C2.875 4.26458 3.06267 3.81337 3.43802 3.43802C3.81337 3.06267 4.26458 2.875 4.79167 2.875H18.2083C18.7354 2.875 19.1866 3.06267 19.562 3.43802C19.9373 3.81337 20.125 4.26458 20.125 4.79167V18.2083C20.125 18.7354 19.9373 19.1866 19.562 19.562C19.1866 19.9373 18.7354 20.125 18.2083 20.125H4.79167ZM4.79167 18.2083H18.2083V4.79167H4.79167V18.2083Z" fill="#3A3A3A"/>
</svg>
