<svg width="30" height="29" viewBox="0 0 30 29" fill="none" xmlns="http://www.w3.org/2000/svg">
<path d="M25.0001 2.89185H23.3334V1.44593C23.3334 1.06244 23.1578 0.694666 22.8453 0.423502C22.5327 0.152338 22.1088 0 21.6667 0C21.2247 0 20.8008 0.152338 20.4882 0.423502C20.1757 0.694666 20.0001 1.06244 20.0001 1.44593V2.89185H10V1.44593C10 1.06244 9.82444 0.694666 9.51188 0.423502C9.19932 0.152338 8.77539 0 8.33336 0C7.89133 0 7.46741 0.152338 7.15485 0.423502C6.84229 0.694666 6.66669 1.06244 6.66669 1.44593V2.89185H5.00002C3.67393 2.89185 2.40216 3.34887 1.46447 4.16236C0.526786 4.97585 0 6.07918 0 7.22963V24.5807C0 25.7312 0.526786 26.8345 1.46447 27.648C2.40216 28.4615 3.67393 28.9185 5.00002 28.9185H25.0001C26.3262 28.9185 27.5979 28.4615 28.5356 27.648C29.4733 26.8345 30.0001 25.7312 30.0001 24.5807V7.22963C30.0001 6.07918 29.4733 4.97585 28.5356 4.16236C27.5979 3.34887 26.3262 2.89185 25.0001 2.89185ZM8.33336 21.6889C8.00373 21.6889 7.68149 21.6041 7.40741 21.4452C7.13333 21.2863 6.9197 21.0605 6.79356 20.7963C6.66741 20.5321 6.63441 20.2414 6.69871 19.9609C6.76302 19.6804 6.92176 19.4228 7.15485 19.2205C7.38794 19.0183 7.68491 18.8806 8.00821 18.8248C8.33151 18.769 8.66663 18.7977 8.97117 18.9071C9.27571 19.0165 9.53601 19.2019 9.71915 19.4397C9.90229 19.6774 10 19.957 10 20.243C10 20.6265 9.82444 20.9942 9.51188 21.2654C9.19932 21.5366 8.77539 21.6889 8.33336 21.6889ZM21.6667 21.6889H15.0001C14.558 21.6889 14.1341 21.5366 13.8215 21.2654C13.509 20.9942 13.3334 20.6265 13.3334 20.243C13.3334 19.8595 13.509 19.4917 13.8215 19.2205C14.1341 18.9494 14.558 18.797 15.0001 18.797H21.6667C22.1088 18.797 22.5327 18.9494 22.8453 19.2205C23.1578 19.4917 23.3334 19.8595 23.3334 20.243C23.3334 20.6265 23.1578 20.9942 22.8453 21.2654C22.5327 21.5366 22.1088 21.6889 21.6667 21.6889ZM26.6668 13.0133H3.33334V7.22963C3.33334 6.84615 3.50894 6.47837 3.8215 6.20721C4.13406 5.93604 4.55799 5.78371 5.00002 5.78371H6.66669V7.22963C6.66669 7.61312 6.84229 7.98089 7.15485 8.25206C7.46741 8.52322 7.89133 8.67556 8.33336 8.67556C8.77539 8.67556 9.19932 8.52322 9.51188 8.25206C9.82444 7.98089 10 7.61312 10 7.22963V5.78371H20.0001V7.22963C20.0001 7.61312 20.1757 7.98089 20.4882 8.25206C20.8008 8.52322 21.2247 8.67556 21.6667 8.67556C22.1088 8.67556 22.5327 8.52322 22.8453 8.25206C23.1578 7.98089 23.3334 7.61312 23.3334 7.22963V5.78371H25.0001C25.4421 5.78371 25.866 5.93604 26.1786 6.20721C26.4912 6.47837 26.6668 6.84615 26.6668 7.22963V13.0133Z" fill="#65AAFA"/>
</svg>
